<svg width="276" height="209" viewBox="0 0 276 209" fill="none" xmlns="http://www.w3.org/2000/svg">
<path d="M0 12C0 5.37258 5.37258 0 12 0H276C276 115.428 182.428 209 67 209H0V12Z" fill="#D5E2FC"/>
<mask id="mask0" mask-type="alpha" maskUnits="userSpaceOnUse" x="0" y="0" width="276" height="209">
<path d="M0 12C0 5.37258 5.37258 0 12 0H276C276 115.428 182.428 209 67 209H0V12Z" fill="#D5E2FC"/>
</mask>
<g mask="url(#mask0)">
<path d="M30.9669 211.533L30.9669 281.966L-0.192902 263.976L-0.192905 193.543L30.9669 211.533ZM29.6734 279.614L29.6734 212.239L1.10052 195.777L1.10052 263.153L29.6734 279.614Z" fill="#AAC5F9"/>
<path d="M90.9346 142.629L90.9346 177.787L90.5819 178.022L60.3628 195.424L29.9085 177.787L29.9085 142.629L30.2613 142.394L60.3628 124.991L90.9346 142.629ZM89.5236 177.081L89.5236 143.335L60.3628 126.52L31.202 143.335L31.202 177.081L60.3628 193.896L89.5236 177.081Z" fill="#AAC5F9"/>
<path d="M90.5819 176.846L89.8764 178.022L60.3628 160.972L30.8492 178.022L30.2613 176.846L60.3628 159.444L90.5819 176.846Z" fill="#AAC5F9"/>
<path d="M59.7749 125.697L59.7749 160.149L61.0684 160.149L61.0684 125.697L59.7749 125.697Z" fill="#AAC5F9"/>
<path d="M30.9669 108.059L30.9669 178.492L-0.192902 160.502L-0.192905 90.069L30.9669 108.059ZM29.6734 176.258L29.6734 108.882L1.10052 92.4207L1.10052 159.796L29.6734 176.258Z" fill="#AAC5F9"/>
<path d="M90.9347 176.258L90.9347 212.239L90.5819 212.474L29.9086 247.514L29.9086 211.181L30.2613 210.945L90.9347 176.258ZM89.5237 211.533L89.5237 178.61L31.0844 212.004L31.0844 245.28L89.5237 211.533Z" fill="#AAC5F9"/>
<path d="M61.6563 194.601L29.9086 212.592L-30.9999 177.787L0.512601 159.444L0.865354 159.679L61.6563 194.601ZM30.0262 211.181L59.0694 194.719L0.512602 160.972L-28.4131 177.669L30.0262 211.181Z" fill="#AAC5F9"/>
<path d="M90.9346 39.155L90.9346 74.4302L90.5819 74.6654L60.3628 92.0678L29.9085 74.4302L29.9085 39.155L30.2613 38.9198L60.4804 21.5174L90.9346 39.155ZM89.5236 73.6071L89.5236 39.8605L60.3628 23.046L31.202 39.8605L31.202 73.6071L60.3628 90.4216L89.5236 73.6071Z" fill="#AAC5F9"/>
<path d="M90.5819 73.4896L89.8764 74.5478L60.3628 57.4981L30.8492 74.5478L30.2613 73.4896L60.3628 56.0871L90.5819 73.4896Z" fill="#AAC5F9"/>
<path d="M59.7749 22.3406L59.7749 56.7927L61.0684 56.7927L61.0684 22.3406L59.7749 22.3406Z" fill="#AAC5F9"/>
<path d="M30.9669 4.70294L30.9669 75.1357L-0.192902 57.1454L-0.192905 -13.2874L30.9669 4.70294ZM29.6734 72.9017L29.6734 5.52601L1.10052 -10.9358L1.10052 56.4399L29.6734 72.9017Z" fill="#AAC5F9"/>
<path d="M90.9347 72.9018L90.9347 108.882L90.582 109.118L29.9086 144.158L29.9086 107.824L30.2614 107.589L90.9347 72.9018ZM89.5237 108.059L89.5237 75.1358L31.2021 108.53L31.2021 141.806L89.5237 108.059Z" fill="#AAC5F9"/>
<path d="M61.6563 91.2447L29.9086 109.235L-30.9999 74.3126L0.512601 55.9695L0.865354 56.2047L61.6563 91.2447ZM30.0262 107.706L59.0694 91.2447L0.512601 57.4981L-28.4131 74.3126L30.0262 107.706Z" fill="#AAC5F9"/>
<path d="M90.9346 -30.4545L90.9346 5.52617L90.5818 5.76135L29.9085 40.8014L29.9085 4.46792L30.2612 4.23274L90.9346 -30.4545ZM89.5236 4.70311L89.5236 -28.2204L31.0843 5.17344L31.0843 38.4497L89.5236 4.70311Z" fill="#AAC5F9"/>
<path d="M61.6562 -12.1114L29.9085 5.87894L-31 -29.0435L0.51251 -47.3866L0.865263 -47.1514L61.6562 -12.1114ZM30.0261 4.35033L59.0693 -12.1114L0.51251 -45.858L-28.4132 -29.0435L30.0261 4.35033Z" fill="#AAC5F9"/>
<path d="M211.341 211.533L211.341 281.966L180.181 263.976L180.181 193.543L211.341 211.533ZM210.047 279.614L210.047 212.239L181.474 195.777L181.474 263.153L210.047 279.614Z" fill="#AAC5F9"/>
<path d="M271.191 142.629L271.191 177.787L270.838 178.022L240.619 195.424L210.165 177.787L210.165 142.629L210.518 142.394L240.619 124.991L271.191 142.629ZM269.897 177.081L269.897 143.335L240.737 126.52L211.576 143.335L211.576 177.081L240.619 193.896L269.897 177.081Z" fill="#AAC5F9"/>
<path d="M270.838 176.846L270.25 178.022L240.619 160.972L211.105 178.022L210.518 176.846L240.619 159.444L270.838 176.846Z" fill="#AAC5F9"/>
<path d="M240.031 125.697L240.031 160.149L241.325 160.149L241.325 125.697L240.031 125.697Z" fill="#AAC5F9"/>
<path d="M211.341 108.059L211.341 178.492L180.181 160.502L180.181 90.069L211.341 108.059ZM210.047 176.258L210.047 108.882L181.474 92.4207L181.474 159.796L210.047 176.258Z" fill="#AAC5F9"/>
<path d="M271.191 176.258L271.191 212.239L270.838 212.474L210.165 247.514L210.165 211.181L210.518 210.945L271.191 176.258ZM269.897 211.533L269.897 178.61L211.458 212.004L211.458 245.28L269.897 211.533Z" fill="#AAC5F9"/>
<path d="M242.03 194.601L210.282 212.592L149.256 177.669L180.769 159.326L181.122 159.561L242.03 194.601ZM210.282 211.181L239.326 194.719L180.769 160.972L151.843 177.787L210.282 211.181Z" fill="#AAC5F9"/>
<path d="M271.191 39.1549L271.191 74.4301L270.838 74.6653L240.619 92.0677L210.165 74.4301L210.165 39.1549L210.518 38.9198L240.737 21.5173L271.191 39.1549ZM269.897 73.607L269.897 39.8605L240.737 23.0459L211.576 39.8605L211.576 73.607L240.619 90.5392L269.897 73.607Z" fill="#AAC5F9"/>
<path d="M270.838 73.4895L270.25 74.5478L240.619 57.4981L211.105 74.5478L210.518 73.4895L240.619 56.0871L270.838 73.4895Z" fill="#AAC5F9"/>
<path d="M240.031 22.3405L240.031 56.7926L241.325 56.7926L241.325 22.3405L240.031 22.3405Z" fill="#AAC5F9"/>
<path d="M211.341 4.70289L211.341 75.1357L180.181 57.1453L180.181 -13.2875L211.341 4.70289ZM210.047 72.9016L210.047 5.52596L181.474 -10.9358L181.474 56.4398L210.047 72.9016Z" fill="#AAC5F9"/>
<path d="M271.191 72.9017L271.191 108.882L270.838 109.118L210.165 144.158L210.165 107.824L210.518 107.589L271.191 72.9017ZM269.897 108.059L269.897 75.1358L211.458 108.53L211.458 141.806L269.897 108.059Z" fill="#AAC5F9"/>
<path d="M242.03 91.2447L210.282 109.235L149.256 74.3126L180.769 55.9695L181.122 56.2046L242.03 91.2447ZM210.282 107.706L239.326 91.2447L180.769 57.4981L151.843 74.3126L210.282 107.706Z" fill="#AAC5F9"/>
<path d="M271.191 -30.4545L271.191 5.52616L270.838 5.76134L210.165 40.8014L210.165 4.46791L210.518 4.23273L271.191 -30.4545ZM269.897 4.70309L269.897 -28.2204L211.458 5.17343L211.458 38.4497L269.897 4.70309Z" fill="#AAC5F9"/>
<path d="M242.03 -12.1115L210.282 5.87887L149.256 -29.0436L180.769 -47.3867L181.122 -47.1515L242.03 -12.1115ZM210.282 4.35025L239.326 -12.1115L180.769 -45.8581L151.961 -29.0436L210.282 4.35025Z" fill="#AAC5F9"/>
<path d="M181.004 194.248L181.004 229.406L180.651 229.641L150.432 247.044L119.978 229.406L119.978 194.248L120.331 194.013L150.55 176.611L181.004 194.248ZM179.711 228.701L179.711 194.954L150.55 178.139L121.389 194.954L121.389 228.701L150.55 245.515L179.711 228.701Z" fill="#AAC5F9"/>
<path d="M149.844 177.434L149.844 211.886L151.138 211.886L151.138 177.434L149.844 177.434Z" fill="#AAC5F9"/>
<path d="M121.036 159.796L121.036 230.229L89.8764 212.239L89.8764 141.806L121.036 159.796ZM119.743 227.995L119.743 160.619L91.1699 144.158L91.1699 211.533L119.743 227.995Z" fill="#AAC5F9"/>
<path d="M181.004 90.8921L181.004 126.05L180.651 126.285L150.432 143.687L119.978 126.05L119.978 90.8921L120.331 90.6569L150.55 73.2545L181.004 90.8921ZM179.711 125.344L179.711 91.5976L150.55 74.7831L121.389 91.5976L121.389 125.344L150.55 142.159L179.711 125.344Z" fill="#AAC5F9"/>
<path d="M180.651 125.109L179.946 126.285L150.432 109.235L120.919 126.285L120.331 125.109L150.432 107.707L180.651 125.109Z" fill="#AAC5F9"/>
<path d="M149.844 74.0775L149.844 108.53L151.138 108.53L151.138 74.0775L149.844 74.0775Z" fill="#AAC5F9"/>
<path d="M121.036 56.4399L121.036 126.873L89.8764 108.882L89.8764 38.4496L121.036 56.4399ZM119.743 124.639L119.743 57.263L91.1699 40.8012L91.1699 108.177L119.743 124.639Z" fill="#AAC5F9"/>
<path d="M181.004 124.639L181.004 160.619L180.651 160.855L119.978 195.895L119.978 159.561L120.331 159.326L181.004 124.639ZM179.711 159.796L179.711 126.873L121.271 160.267L121.271 193.543L179.711 159.796Z" fill="#AAC5F9"/>
<path d="M151.726 142.982L119.978 160.972L58.9519 126.05L90.4644 107.707L90.8171 107.942L151.726 142.982ZM120.096 159.444L149.139 142.982L90.582 109.235L61.6563 126.05L120.096 159.444Z" fill="#AAC5F9"/>
<path d="M181.004 -12.4644L181.004 22.6932L180.651 22.9284L150.432 40.3308L119.978 22.6932L119.978 -12.4644L120.331 -12.6996L150.55 -30.102L181.004 -12.4644ZM179.711 21.9877L179.711 -11.7589L150.55 -28.5734L121.389 -11.7589L121.389 21.9877L150.55 38.8022L179.711 21.9877Z" fill="#AAC5F9"/>
<path d="M180.651 21.7525L179.946 22.9284L150.432 5.87871L120.919 22.9284L120.331 21.7525L150.432 4.35009L180.651 21.7525Z" fill="#AAC5F9"/>
<path d="M149.844 -29.279L149.844 5.17318L151.138 5.17318L151.138 -29.279L149.844 -29.279Z" fill="#AAC5F9"/>
<path d="M121.036 -46.9165L121.036 23.5163L89.8764 5.52598L89.8764 -64.9068L121.036 -46.9165ZM119.743 21.1647L119.743 -46.211L91.1698 -62.6727L91.1698 4.70291L119.743 21.1647Z" fill="#AAC5F9"/>
<path d="M181.004 21.2823L181.004 57.263L180.651 57.4982L119.978 92.5382L119.978 56.2047L120.331 55.9695L181.004 21.2823ZM179.711 56.4399L179.711 23.5164L121.271 56.9102L121.271 90.1865L179.711 56.4399Z" fill="#AAC5F9"/>
<path d="M151.726 39.6253L119.978 57.6157L59.0694 22.6932L90.5819 4.35011L90.9347 4.58529L151.726 39.6253ZM120.096 56.0871L149.139 39.6253L90.5819 5.87872L61.6563 22.6932L120.096 56.0871Z" fill="#AAC5F9"/>
<path d="M301.292 159.796L301.292 230.229L270.133 212.239L270.133 141.806L301.292 159.796ZM299.999 227.995L299.999 160.619L271.426 144.158L271.426 211.533L299.999 227.995Z" fill="#AAC5F9"/>
<path d="M301.292 56.4399L301.292 126.873L270.133 108.882L270.133 38.4495L301.292 56.4399ZM299.999 124.639L299.999 57.263L271.426 40.8012L271.426 108.177L299.999 124.639Z" fill="#AAC5F9"/>
<path d="M331.982 142.982L300.234 160.972L239.208 126.05L270.721 107.707L271.073 107.942L331.982 142.982ZM300.234 159.444L329.277 142.982L270.721 109.235L241.795 126.05L300.234 159.444Z" fill="#AAC5F9"/>
<path d="M301.292 -46.9165L301.292 23.5163L270.133 5.52597L270.133 -64.9068L301.292 -46.9165ZM299.999 21.1647L299.999 -46.211L271.426 -62.6727L271.426 4.7029L299.999 21.1647Z" fill="#AAC5F9"/>
<path d="M331.982 39.6253L300.234 57.6157L239.208 22.6932L270.721 4.3501L271.073 4.58528L331.982 39.6253ZM300.234 56.0871L329.277 39.6253L270.721 5.87871L241.795 22.6932L300.234 56.0871Z" fill="#AAC5F9"/>
</g>
</svg>
