<svg width="601" height="516" viewBox="0 0 601 516" fill="none" xmlns="http://www.w3.org/2000/svg">
<path d="M186.794 627.889V682.235L186.254 682.597L140.019 709.226L93.4242 682.054L93.4242 627.889L93.9639 627.527L140.199 600.716L186.794 627.889ZM184.635 680.967V628.976L140.019 603.071L95.4031 628.976V680.967L140.019 706.871L184.635 680.967Z" fill="url(#paint0_linear)"/>
<path d="M186.254 680.785L185.175 682.416L140.019 656.149L94.8635 682.416L93.964 680.785L140.019 653.794L186.254 680.785Z" fill="url(#paint1_linear)"/>
<path d="M139.12 601.984V655.062H141.099V601.984H139.12Z" fill="url(#paint2_linear)"/>
<path d="M95.0434 574.811L95.0434 683.322L47.3691 655.605L47.3691 547.095L95.0434 574.811ZM93.0645 679.88V576.08L49.3481 550.718L49.3481 654.518L93.0645 679.88Z" fill="url(#paint3_linear)"/>
<path d="M186.794 679.88V735.312L186.254 735.674L93.4243 789.477V733.501L93.964 733.138L186.794 679.88ZM184.635 734.044V683.322L95.4032 734.769L95.4032 786.035L184.635 734.044Z" fill="url(#paint4_linear)"/>
<path d="M141.998 708.139L93.4243 735.856L0.234593 682.053L48.4486 653.794L48.9883 654.156L141.998 708.139ZM93.6042 733.501L138.04 708.139L48.4486 656.149L4.19246 682.053L93.6042 733.501Z" fill="url(#paint5_linear)"/>
<path d="M186.794 468.656V522.821L186.254 523.183L140.019 549.993L93.4242 522.821L93.4242 468.656L93.9639 468.294L140.199 441.483L186.794 468.656ZM184.635 521.734V469.743L140.019 443.838L95.4031 469.743V521.734L140.019 547.638L184.635 521.734Z" fill="url(#paint6_linear)"/>
<path d="M186.254 521.371L185.175 523.183L140.019 496.916L94.8635 523.183L93.964 521.371L140.019 494.561L186.254 521.371Z" fill="url(#paint7_linear)"/>
<path d="M139.12 442.751V495.829H141.099V442.751H139.12Z" fill="url(#paint8_linear)"/>
<path d="M95.0434 415.578L95.0434 524.089L47.3691 496.372L47.3691 387.862L95.0434 415.578ZM93.0645 520.466V416.665L49.3481 391.304L49.3481 495.104L93.0645 520.466Z" fill="url(#paint9_linear)"/>
<path d="M186.794 520.647V576.079L186.254 576.442L93.4243 630.244V574.268L93.964 573.905L186.794 520.647ZM184.635 574.811V524.089L95.2233 575.536V626.802L184.635 574.811Z" fill="url(#paint10_linear)"/>
<path d="M141.998 548.906L93.4243 576.623L0.234593 522.821L48.4486 494.561L48.9883 494.923L141.998 548.906ZM93.6042 574.268L138.04 548.906L48.4486 496.916L4.19246 522.821L93.6042 574.268Z" fill="url(#paint11_linear)"/>
<path d="M186.794 309.423V363.588L186.254 363.95L140.019 390.761L93.4242 363.588L93.4242 309.423L93.9639 309.061L140.019 282.251L186.794 309.423ZM184.635 362.501V310.51L140.019 284.605L95.4031 310.51V362.501L140.019 388.406L184.635 362.501Z" fill="url(#paint12_linear)"/>
<path d="M186.254 362.139L185.175 363.95L140.019 337.683L94.8635 363.95L93.964 362.139L140.019 335.328L186.254 362.139Z" fill="url(#paint13_linear)"/>
<path d="M139.12 283.337V336.415H141.099V283.337H139.12Z" fill="url(#paint14_linear)"/>
<path d="M95.0434 256.165L95.0434 364.675L47.3691 336.959L47.3691 228.448L95.0434 256.165ZM93.0645 361.233V257.433L49.3481 232.071L49.3481 335.872L93.0645 361.233Z" fill="url(#paint15_linear)"/>
<path d="M186.794 361.233V416.665L186.254 417.028L93.4243 471.011V415.035L93.964 414.673L186.794 361.233ZM184.635 415.579V364.856L95.2233 416.303V467.569L184.635 415.579Z" fill="url(#paint16_linear)"/>
<path d="M141.998 389.493L93.4243 417.209L0.234593 363.588L48.4486 335.328L48.9883 335.69L141.998 389.493ZM93.6042 415.035L138.04 389.674L48.4486 337.683L4.19246 363.407L93.6042 415.035Z" fill="url(#paint17_linear)"/>
<path d="M186.794 150.009V204.355L186.254 204.717L140.019 231.528L93.4242 204.355L93.4242 150.009L93.9639 149.647L140.199 122.836L186.794 150.009ZM184.635 203.087V151.096L140.019 125.191L95.4031 151.096V203.087L140.019 228.992L184.635 203.087Z" fill="url(#paint18_linear)"/>
<path d="M186.254 202.906L185.175 204.536L140.019 178.269L94.8635 204.536L93.964 202.906L140.019 176.095L186.254 202.906Z" fill="url(#paint19_linear)"/>
<path d="M139.12 124.105V177.182H141.099V124.105H139.12Z" fill="url(#paint20_linear)"/>
<path d="M95.0434 96.9317L95.0434 205.442L47.3691 177.725L47.3691 69.2154L95.0434 96.9317ZM93.0645 202V98.1997L49.3481 72.8384L49.3481 176.639L93.0645 202Z" fill="url(#paint21_linear)"/>
<path d="M186.794 202V257.433L186.254 257.795L93.4243 311.778V255.802L93.964 255.44L186.794 202ZM184.635 256.165V205.442L95.4032 256.889L95.4032 308.155L184.635 256.165Z" fill="url(#paint22_linear)"/>
<path d="M141.998 230.26L93.4243 257.976L0.234593 204.174L48.4486 175.914L48.9883 176.276L141.998 230.26ZM93.6042 255.621L138.04 230.26L48.4486 178.269L4.19246 204.174L93.6042 255.621Z" fill="url(#paint23_linear)"/>
<path d="M186.794 -9.22342V44.9411L186.254 45.3034L140.019 72.1139L93.4241 44.9411V-9.22342L93.9638 -9.58574L140.199 -36.3962L186.794 -9.22342ZM184.635 43.8542L184.635 -8.13649L140.019 -34.0413L95.403 -8.13649L95.403 43.8542L140.019 69.7589L184.635 43.8542Z" fill="url(#paint24_linear)"/>
<path d="M186.254 43.6732L185.175 45.3036L140.019 19.0365L94.8634 45.3036L93.9639 43.6732L140.019 16.6815L186.254 43.6732Z" fill="url(#paint25_linear)"/>
<path d="M139.12 -35.1283V17.9493H141.098V-35.1283H139.12Z" fill="url(#paint26_linear)"/>
<path d="M95.0433 -62.3011V46.2091L47.3691 18.4928L47.369 -90.0173L95.0433 -62.3011ZM93.0644 42.7672L93.0644 -61.033L49.348 -86.3943L49.348 17.4059L93.0644 42.7672Z" fill="url(#paint27_linear)"/>
<path d="M186.794 42.7673V98.1999L186.254 98.5623L93.4242 152.546V96.5696L93.9639 96.2072L186.794 42.7673ZM184.635 96.9319V46.2093L95.2232 97.6565L95.2232 148.923L184.635 96.9319Z" fill="url(#paint28_linear)"/>
<path d="M141.998 71.0271L93.4242 98.7434L0.234497 44.9412L48.4485 16.6814L48.9882 17.0438L141.998 71.0271ZM93.6041 96.3884L138.04 71.0271L48.4485 19.0364L4.19236 44.9412L93.6041 96.3884Z" fill="url(#paint29_linear)"/>
<path d="M186.794 -168.456V-114.292L186.254 -113.929L140.019 -87.1188L93.4241 -114.292V-168.456L93.9638 -168.818L140.199 -195.629L186.794 -168.456ZM184.635 -115.379L184.635 -167.369L140.019 -193.274L95.403 -167.369L95.403 -115.379L140.019 -89.4738L184.635 -115.379Z" fill="url(#paint30_linear)"/>
<path d="M186.254 -115.741L185.175 -113.929L140.019 -140.196L94.8634 -113.929L93.9639 -115.741L140.019 -142.551L186.254 -115.741Z" fill="url(#paint31_linear)"/>
<path d="M139.12 -194.361V-141.283H141.098V-194.361H139.12Z" fill="url(#paint32_linear)"/>
<path d="M95.0433 -221.534V-113.024L47.3691 -140.74L47.369 -249.25L95.0433 -221.534ZM93.0644 -116.466L93.0644 -220.266L49.348 -245.627L49.348 -141.827L93.0644 -116.466Z" fill="url(#paint33_linear)"/>
<path d="M186.794 -116.465V-61.0329L186.254 -60.6706L93.4241 -6.68724V-62.6633L93.9638 -63.0256L186.794 -116.465ZM184.635 -62.301V-113.024L95.2231 -61.5763L95.2231 -10.3103L184.635 -62.301Z" fill="url(#paint34_linear)"/>
<path d="M141.998 -88.2057L93.4242 -60.4894L0.234497 -114.292L48.4485 -142.551L48.9882 -142.189L141.998 -88.2057ZM93.6041 -62.8444L138.04 -88.2057L48.4485 -140.196L4.19236 -114.292L93.6041 -62.8444Z" fill="url(#paint35_linear)"/>
<path d="M462.585 627.889V682.235L462.045 682.597L415.81 709.226L369.215 682.054V627.889L369.755 627.527L415.99 600.716L462.585 627.889ZM460.606 680.967V628.976L415.99 603.071L371.374 628.976V680.967L415.81 706.871L460.606 680.967Z" fill="url(#paint36_linear)"/>
<path d="M462.045 680.785L461.146 682.416L415.81 656.149L370.655 682.416L369.755 680.785L415.81 653.794L462.045 680.785Z" fill="url(#paint37_linear)"/>
<path d="M414.911 601.984V655.062H416.89V601.984H414.911Z" fill="url(#paint38_linear)"/>
<path d="M371.014 574.811L371.014 683.322L323.34 655.605V547.095L371.014 574.811ZM369.035 679.88V576.08L325.319 550.718V654.518L369.035 679.88Z" fill="url(#paint39_linear)"/>
<path d="M462.585 679.88V735.312L462.045 735.674L369.215 789.477V733.501L369.755 733.138L462.585 679.88ZM460.606 734.044V683.322L371.194 734.769L371.194 786.035L460.606 734.044Z" fill="url(#paint40_linear)"/>
<path d="M417.969 708.139L369.395 735.856L276.026 682.053L324.24 653.794L324.779 654.156L417.969 708.139ZM369.395 733.501L413.831 708.139L324.24 656.149L279.984 682.053L369.395 733.501Z" fill="url(#paint41_linear)"/>
<path d="M462.585 468.656V522.821L462.045 523.183L415.81 549.994L369.215 522.821V468.656L369.755 468.294L415.99 441.483L462.585 468.656ZM460.606 521.734V469.743L415.99 443.838L371.374 469.743L371.374 521.734L415.81 547.639L460.606 521.734Z" fill="url(#paint42_linear)"/>
<path d="M462.045 521.372L461.146 523.183L415.81 496.916L370.655 523.183L369.755 521.372L415.81 494.561L462.045 521.372Z" fill="url(#paint43_linear)"/>
<path d="M414.911 442.751V495.829H416.89V442.751H414.911Z" fill="url(#paint44_linear)"/>
<path d="M371.014 415.579V524.089L323.34 496.372V387.862L371.014 415.579ZM369.036 520.466V416.665L325.319 391.304V495.104L369.036 520.466Z" fill="url(#paint45_linear)"/>
<path d="M462.585 520.647V576.08L462.045 576.442L369.215 630.425V574.449L369.755 574.087L462.585 520.647ZM460.606 574.811V524.089L371.194 575.536V626.802L460.606 574.811Z" fill="url(#paint46_linear)"/>
<path d="M417.969 548.907L369.395 576.623L276.026 522.821L324.24 494.561L324.779 494.923L417.969 548.907ZM369.395 574.268L413.831 548.907L324.24 496.916L279.984 522.821L369.395 574.268Z" fill="url(#paint47_linear)"/>
<path d="M462.585 309.423V363.588L462.045 363.95L415.81 390.761L369.215 363.588L369.215 309.423L369.755 309.061L415.81 282.251L462.585 309.423ZM460.606 362.501V310.51L415.99 284.605L371.374 310.51V362.501L415.81 388.406L460.606 362.501Z" fill="url(#paint48_linear)"/>
<path d="M462.045 362.139L461.146 363.95L415.81 337.683L370.655 363.95L369.755 362.139L415.81 335.328L462.045 362.139Z" fill="url(#paint49_linear)"/>
<path d="M414.911 283.337V336.415H416.89V283.337H414.911Z" fill="url(#paint50_linear)"/>
<path d="M371.014 256.165V364.675L323.34 336.959V228.448L371.014 256.165ZM369.035 361.233V257.433L325.319 232.071V335.872L369.035 361.233Z" fill="url(#paint51_linear)"/>
<path d="M462.585 361.233V416.665L462.045 417.028L369.215 471.011V415.035L369.755 414.673L462.585 361.233ZM460.606 415.579L460.606 364.856L371.194 416.303V467.569L460.606 415.579Z" fill="url(#paint52_linear)"/>
<path d="M417.969 389.493L369.395 417.209L276.026 363.407L324.24 335.147L324.779 335.509L417.969 389.493ZM369.395 415.035L413.831 389.674L324.24 337.683L279.984 363.588L369.395 415.035Z" fill="url(#paint53_linear)"/>
<path d="M462.585 150.009L462.585 204.355L462.045 204.717L415.81 231.528L369.215 204.355V150.009L369.755 149.647L415.99 122.836L462.585 150.009ZM460.606 203.087V151.096L415.99 125.191L371.374 151.096V203.087L415.81 229.173L460.606 203.087Z" fill="url(#paint54_linear)"/>
<path d="M462.045 202.906L461.146 204.536L415.81 178.269L370.655 204.536L369.755 202.906L415.81 176.095L462.045 202.906Z" fill="url(#paint55_linear)"/>
<path d="M414.911 124.104V177.182H416.89V124.104H414.911Z" fill="url(#paint56_linear)"/>
<path d="M371.014 96.9316V205.442L323.34 177.725V69.2153L371.014 96.9316ZM369.036 202L369.035 98.1996L325.319 72.8383V176.639L369.036 202Z" fill="url(#paint57_linear)"/>
<path d="M462.585 202V257.433L462.045 257.795L369.215 311.778V255.802L369.755 255.44L462.585 202ZM460.606 256.165V205.442L371.194 256.889V308.155L460.606 256.165Z" fill="url(#paint58_linear)"/>
<path d="M417.969 230.26L369.395 257.976L276.026 204.174L324.24 175.914L324.779 176.276L417.969 230.26ZM369.395 255.621L413.831 230.26L324.24 178.269L279.984 204.174L369.395 255.621Z" fill="url(#paint59_linear)"/>
<path d="M462.585 -9.22354V44.9409L462.045 45.3033L415.81 72.1138L369.215 44.941V-9.22353L369.755 -9.58586L415.99 -36.3964L462.585 -9.22354ZM460.606 43.854V-8.13661L415.99 -34.0414L371.374 -8.13661V43.854L415.81 69.7589L460.606 43.854Z" fill="url(#paint60_linear)"/>
<path d="M462.045 43.673L461.146 45.3034L415.81 19.0364L370.655 45.3034L369.755 43.673L415.81 16.6814L462.045 43.673Z" fill="url(#paint61_linear)"/>
<path d="M414.911 -35.1283L414.911 17.9493H416.89V-35.1283H414.911Z" fill="url(#paint62_linear)"/>
<path d="M371.014 -62.3011V46.2091L323.34 18.4928V-90.0174L371.014 -62.3011ZM369.035 42.7672V-61.033L325.319 -86.3943V17.4059L369.035 42.7672Z" fill="url(#paint63_linear)"/>
<path d="M462.585 42.7673V98.1999L462.045 98.5622L369.215 152.546V96.5695L369.755 96.2072L462.585 42.7673ZM460.606 96.9319V46.2093L371.194 97.6565V148.923L460.606 96.9319Z" fill="url(#paint64_linear)"/>
<path d="M417.969 71.027L369.395 98.7433L276.026 44.9411L324.24 16.6813L324.779 17.0436L417.969 71.027ZM369.395 96.3883L413.831 71.027L324.24 19.0363L280.163 44.9411L369.395 96.3883Z" fill="url(#paint65_linear)"/>
<path d="M462.585 -168.456V-114.292L462.045 -113.929L415.81 -87.1188L369.215 -114.292V-168.456L369.755 -168.818L415.99 -195.629L462.585 -168.456ZM460.606 -115.379V-167.369L415.99 -193.274L371.374 -167.369V-115.379L415.81 -89.4738L460.606 -115.379Z" fill="url(#paint66_linear)"/>
<path d="M462.045 -115.741L461.146 -113.929L415.81 -140.196L370.655 -113.929L369.755 -115.741L415.81 -142.551L462.045 -115.741Z" fill="url(#paint67_linear)"/>
<path d="M414.911 -194.361V-141.283H416.89V-194.361H414.911Z" fill="url(#paint68_linear)"/>
<path d="M371.014 -221.534V-113.024L323.34 -140.74L323.34 -249.25L371.014 -221.534ZM369.035 -116.466V-220.266L325.319 -245.627V-141.827L369.035 -116.466Z" fill="url(#paint69_linear)"/>
<path d="M462.585 -116.465V-61.0329L462.045 -60.6706L369.215 -6.68726V-62.6633L369.755 -63.0256L462.585 -116.465ZM460.606 -62.301V-113.024L371.194 -61.5764V-10.3103L460.606 -62.301Z" fill="url(#paint70_linear)"/>
<path d="M417.969 -88.2057L369.395 -60.4894L276.026 -114.292L324.24 -142.551L324.779 -142.189L417.969 -88.2057ZM369.395 -62.8444L413.831 -88.2057L324.24 -140.196L279.983 -114.292L369.395 -62.8444Z" fill="url(#paint71_linear)"/>
<path d="M324.599 548.363V602.528L324.06 602.89L277.825 629.7L231.23 602.528V548.363L231.77 548.001L278.005 521.19L324.599 548.363ZM322.62 601.441V549.45L278.005 523.545L233.389 549.45L233.389 601.441L278.005 627.345L322.62 601.441Z" fill="url(#paint72_linear)"/>
<path d="M324.06 601.078L322.98 602.89L277.825 576.623L232.669 602.89L231.77 601.078L277.825 574.268L324.06 601.078Z" fill="url(#paint73_linear)"/>
<path d="M276.925 522.277V575.355H278.904V522.277H276.925Z" fill="url(#paint74_linear)"/>
<path d="M232.849 495.104L232.849 603.615L185.175 575.898V467.388L232.849 495.104ZM230.87 600.173V496.373L187.154 471.011L187.154 574.811L230.87 600.173Z" fill="url(#paint75_linear)"/>
<path d="M324.599 600.173L324.599 655.605L324.06 655.967L231.23 709.77L231.23 653.794L231.77 653.431L324.599 600.173ZM322.62 654.518V603.796L233.209 655.243V706.328L322.62 654.518Z" fill="url(#paint76_linear)"/>
<path d="M279.804 628.432L231.23 656.149L137.86 602.347L186.074 574.087L186.614 574.449L279.804 628.432ZM231.41 653.794L275.846 628.432L186.254 576.442L141.998 602.347L231.41 653.794Z" fill="url(#paint77_linear)"/>
<path d="M324.599 388.949V443.114L324.06 443.476L277.825 470.287L231.23 443.114V388.949L231.77 388.587L278.005 361.777L324.599 388.949ZM322.621 442.027V390.036L278.005 364.132L233.389 390.036V442.027L278.005 467.932L322.621 442.027Z" fill="url(#paint78_linear)"/>
<path d="M324.06 441.846L322.98 443.476L277.825 417.209L232.669 443.476L231.77 441.846L277.825 415.035L324.06 441.846Z" fill="url(#paint79_linear)"/>
<path d="M276.925 363.045V416.122H278.904V363.045H276.925Z" fill="url(#paint80_linear)"/>
<path d="M232.849 335.872L232.849 444.382L185.175 416.666V308.155L232.849 335.872ZM230.87 440.94V337.14L187.154 311.779L187.154 415.579L230.87 440.94Z" fill="url(#paint81_linear)"/>
<path d="M324.599 440.94L324.599 496.373L324.06 496.735L231.23 550.718L231.23 494.742L231.77 494.38L324.599 440.94ZM322.621 495.105V444.382L233.209 495.829V547.095L322.621 495.105Z" fill="url(#paint82_linear)"/>
<path d="M279.804 469.2L231.23 496.916L137.86 443.114L186.074 414.854L186.614 415.216L279.804 469.2ZM231.41 494.561L275.846 469.2L186.254 417.209L141.998 443.114L231.41 494.561Z" fill="url(#paint83_linear)"/>
<path d="M324.6 229.716V283.881L324.06 284.243L277.825 311.054L231.23 283.881V229.716L231.77 229.354L278.005 202.544L324.6 229.716ZM322.621 282.794V230.803L278.005 204.899L233.389 230.803V282.794L278.005 308.699L322.621 282.794Z" fill="url(#paint84_linear)"/>
<path d="M324.06 282.432L322.98 284.243L277.825 257.976L232.669 284.243L231.77 282.432L277.825 255.621L324.06 282.432Z" fill="url(#paint85_linear)"/>
<path d="M276.925 203.812L276.925 256.889H278.904V203.812H276.925Z" fill="url(#paint86_linear)"/>
<path d="M232.849 176.639V285.149L185.175 257.433L185.175 148.922L232.849 176.639ZM230.87 281.707L230.87 177.907L187.154 152.545V256.346L230.87 281.707Z" fill="url(#paint87_linear)"/>
<path d="M324.6 281.707V337.14L324.06 337.502L231.23 391.485V335.509L231.77 335.147L324.6 281.707ZM322.621 335.872V285.149L233.209 336.596V387.862L322.621 335.872Z" fill="url(#paint88_linear)"/>
<path d="M279.804 309.967L231.23 337.683L137.86 283.881L186.074 255.621L186.614 255.983L279.804 309.967ZM231.41 335.328L275.846 309.967L186.254 257.976L141.998 283.881L231.41 335.328Z" fill="url(#paint89_linear)"/>
<path d="M324.599 70.4833V124.648L324.06 125.01L277.825 151.821L231.23 124.648V70.4833L231.77 70.121L278.005 43.3105L324.599 70.4833ZM322.62 123.561V71.5702L278.005 45.6654L233.389 71.5703V123.561L278.005 149.466L322.62 123.561Z" fill="url(#paint90_linear)"/>
<path d="M324.06 123.199L322.98 125.01L277.825 98.7431L232.669 125.01L231.77 123.199L277.825 96.388L324.06 123.199Z" fill="url(#paint91_linear)"/>
<path d="M276.925 44.5785V97.6561H278.904V44.5785H276.925Z" fill="url(#paint92_linear)"/>
<path d="M232.849 17.4058V125.916L185.175 98.1996V-10.3105L232.849 17.4058ZM230.87 122.293V18.4927L187.154 -6.86864V96.9316L230.87 122.293Z" fill="url(#paint93_linear)"/>
<path d="M324.6 122.474V177.907L324.06 178.269L231.23 232.252V176.276L231.77 175.914L324.6 122.474ZM322.621 176.639V125.916L233.209 177.363V228.629L322.621 176.639Z" fill="url(#paint94_linear)"/>
<path d="M279.804 150.734L231.23 178.45L138.04 124.648L186.254 96.3881L186.794 96.7504L279.804 150.734ZM231.41 176.095L275.846 150.734L186.254 98.7431L141.998 124.648L231.41 176.095Z" fill="url(#paint95_linear)"/>
<path d="M324.599 -88.7493V-34.5848L324.06 -34.2225L277.825 -7.41194L231.23 -34.5848V-88.7493L231.77 -89.1116L278.005 -115.922L324.599 -88.7493ZM322.62 -35.6717V-87.6624L278.005 -113.567L233.389 -87.6624V-35.6717L278.005 -9.76695L322.62 -35.6717Z" fill="url(#paint96_linear)"/>
<path d="M324.06 -36.0341L322.98 -34.2225L277.825 -60.4896L232.669 -34.2225L231.77 -36.0341L277.825 -62.8446L324.06 -36.0341Z" fill="url(#paint97_linear)"/>
<path d="M276.925 -114.835V-61.7576H278.904V-114.835H276.925Z" fill="url(#paint98_linear)"/>
<path d="M232.849 -142.008V-33.4979L185.175 -61.2142V-169.724L232.849 -142.008ZM230.87 -36.9398V-140.74L187.154 -166.101V-62.3011L230.87 -36.9398Z" fill="url(#paint99_linear)"/>
<path d="M324.599 -36.9398V18.4928L324.06 18.8552L231.23 72.8385V16.8625L231.77 16.5002L324.599 -36.9398ZM322.62 17.4059L322.62 -33.3167L233.209 18.1306V69.3966L322.62 17.4059Z" fill="url(#paint100_linear)"/>
<path d="M279.804 -8.68011L231.23 19.0362L137.86 -34.766L186.074 -63.0258L186.614 -62.6635L279.804 -8.68011ZM231.41 16.8624L275.846 -8.49895L186.254 -60.4897L141.998 -34.766L231.41 16.8624Z" fill="url(#paint101_linear)"/>
<path d="M600.211 548.363V602.528L599.671 602.89L553.436 629.7L506.841 602.528V548.363L507.381 548.001L553.616 521.19L600.211 548.363ZM598.232 601.441V549.45L553.616 523.545L509 549.45V601.441L553.616 627.345L598.232 601.441Z" fill="url(#paint102_linear)"/>
<path d="M599.671 601.078L598.592 602.89L553.436 576.623L508.28 602.89L507.381 601.078L553.436 574.268L599.671 601.078Z" fill="url(#paint103_linear)"/>
<path d="M552.536 522.277V575.355H554.515V522.277H552.536Z" fill="url(#paint104_linear)"/>
<path d="M508.64 495.104V603.615L460.966 575.898V467.388L508.64 495.104ZM506.661 600.173V496.372L462.945 471.011V574.811L506.661 600.173Z" fill="url(#paint105_linear)"/>
<path d="M600.211 600.173V655.605L599.671 655.967L506.841 709.77V653.794L507.381 653.431L600.211 600.173ZM598.232 654.518V603.796L508.82 655.243V706.328L598.232 654.518Z" fill="url(#paint106_linear)"/>
<path d="M555.595 628.432L507.021 656.149L413.651 602.346L461.865 574.087L462.405 574.449L555.595 628.432ZM507.021 653.794L551.457 628.432L461.865 576.442L417.609 602.346L507.021 653.794Z" fill="url(#paint107_linear)"/>
<path d="M600.211 388.949V443.114L599.671 443.476L553.436 470.287L506.841 443.114V388.949L507.381 388.587L553.616 361.776L600.211 388.949ZM598.232 442.027V390.036L553.616 364.131L509 390.036V442.027L553.616 467.932L598.232 442.027Z" fill="url(#paint108_linear)"/>
<path d="M599.671 441.846L598.591 443.476L553.436 417.209L508.28 443.476L507.381 441.846L553.436 415.035L599.671 441.846Z" fill="url(#paint109_linear)"/>
<path d="M552.536 363.044V416.122H554.515V363.044H552.536Z" fill="url(#paint110_linear)"/>
<path d="M508.64 335.872V444.382L460.966 416.665V308.155L508.64 335.872ZM506.661 440.94V337.14L462.945 311.778L462.945 415.579L506.661 440.94Z" fill="url(#paint111_linear)"/>
<path d="M600.211 440.94V496.373L599.671 496.735L506.841 550.718L506.841 494.742L507.381 494.38L600.211 440.94ZM598.232 495.105V444.382L508.82 495.829V547.095L598.232 495.105Z" fill="url(#paint112_linear)"/>
<path d="M555.595 469.2L507.021 496.916L413.651 443.114L461.865 414.854L462.405 415.216L555.595 469.2ZM507.021 494.561L551.457 469.2L461.865 417.209L417.609 443.114L507.021 494.561Z" fill="url(#paint113_linear)"/>
<path d="M600.211 229.716V283.881L599.671 284.243L553.436 311.054L506.841 283.881V229.716L507.381 229.354L553.616 202.544L600.211 229.716ZM598.232 282.794V230.803L553.616 204.899L509 230.803V282.794L553.616 308.699L598.232 282.794Z" fill="url(#paint114_linear)"/>
<path d="M599.671 282.432L598.591 284.243L553.436 257.976L508.28 284.243L507.381 282.432L553.436 255.621L599.671 282.432Z" fill="url(#paint115_linear)"/>
<path d="M552.536 203.812V256.889H554.515V203.812H552.536Z" fill="url(#paint116_linear)"/>
<path d="M508.64 176.639V285.149L460.966 257.432V148.922L508.64 176.639ZM506.661 281.707L506.661 177.907L462.945 152.545V256.346L506.661 281.707Z" fill="url(#paint117_linear)"/>
<path d="M600.211 281.707V337.14L599.671 337.502L506.841 391.485V335.509L507.381 335.147L600.211 281.707ZM598.232 335.872V285.149L508.82 336.596V387.862L598.232 335.872Z" fill="url(#paint118_linear)"/>
<path d="M555.595 309.967L507.021 337.683L413.651 283.881L461.865 255.621L462.405 255.983L555.595 309.967ZM507.021 335.328L551.457 309.967L461.865 257.976L417.609 283.881L507.021 335.328Z" fill="url(#paint119_linear)"/>
<path d="M600.211 70.4833V124.648L599.671 125.01L553.436 151.821L506.841 124.648V70.4833L507.381 70.121L553.616 43.3105L600.211 70.4833ZM598.232 123.561V71.5702L553.616 45.6654L509 71.5702V123.561L553.616 149.466L598.232 123.561Z" fill="url(#paint120_linear)"/>
<path d="M599.671 123.199L598.591 125.01L553.436 98.743L508.28 125.01L507.381 123.199L553.436 96.388L599.671 123.199Z" fill="url(#paint121_linear)"/>
<path d="M552.536 44.5785V97.6561H554.515V44.5785H552.536Z" fill="url(#paint122_linear)"/>
<path d="M508.64 17.4057V125.916L460.966 98.1996V-10.3105L508.64 17.4057ZM506.661 122.293V18.4927L462.945 -6.86864V96.9316L506.661 122.293Z" fill="url(#paint123_linear)"/>
<path d="M600.211 122.474V177.907L599.671 178.269L506.841 232.252V176.276L507.381 175.914L600.211 122.474ZM598.232 176.639V125.916L508.82 177.363V228.629L598.232 176.639Z" fill="url(#paint124_linear)"/>
<path d="M555.595 150.734L507.021 178.45L413.651 124.648L461.865 96.3881L462.405 96.7504L555.595 150.734ZM507.021 176.095L551.457 150.734L461.865 98.7431L417.609 124.648L507.021 176.095Z" fill="url(#paint125_linear)"/>
<path d="M600.211 -88.7493V-34.5848L599.671 -34.2225L553.436 -7.41196L506.841 -34.5848V-88.7493L507.381 -89.1116L553.616 -115.922L600.211 -88.7493ZM598.232 -35.6717V-87.6624L553.616 -113.567L509 -87.6624V-35.6717L553.616 -9.76697L598.232 -35.6717Z" fill="url(#paint126_linear)"/>
<path d="M599.671 -36.0341L598.591 -34.2226L553.436 -60.4896L508.28 -34.2226L507.381 -36.0341L553.436 -62.8446L599.671 -36.0341Z" fill="url(#paint127_linear)"/>
<path d="M552.536 -114.835L552.536 -61.7576H554.515V-114.835H552.536Z" fill="url(#paint128_linear)"/>
<path d="M508.64 -142.008L508.64 -33.4979L460.966 -61.2142V-169.724L508.64 -142.008ZM506.661 -36.9398V-140.74L462.945 -166.101V-62.3011L506.661 -36.9398Z" fill="url(#paint129_linear)"/>
<path d="M600.211 -36.9398L600.211 18.4928L599.671 18.8551L506.841 72.8385V16.8625L507.381 16.5001L600.211 -36.9398ZM598.232 17.4059V-33.3167L508.82 18.1306V69.3966L598.232 17.4059Z" fill="url(#paint130_linear)"/>
<path d="M555.595 -8.68013L507.021 19.0362L413.651 -34.766L461.865 -63.0258L462.405 -62.6635L555.595 -8.68013ZM507.021 16.8623L551.457 -8.49896L461.865 -60.4897L417.609 -34.766L507.021 16.8623Z" fill="url(#paint131_linear)"/>
<defs>
<linearGradient id="paint0_linear" x1="600.069" y1="512" x2="214.753" y2="153.661" gradientUnits="userSpaceOnUse">
<stop stop-color="#2B6DEF"/>
<stop offset="1" stop-color="#2B6DEF" stop-opacity="0"/>
</linearGradient>
<linearGradient id="paint1_linear" x1="600.069" y1="512" x2="214.753" y2="153.661" gradientUnits="userSpaceOnUse">
<stop stop-color="#2B6DEF"/>
<stop offset="1" stop-color="#2B6DEF" stop-opacity="0"/>
</linearGradient>
<linearGradient id="paint2_linear" x1="600.069" y1="512" x2="214.753" y2="153.661" gradientUnits="userSpaceOnUse">
<stop stop-color="#2B6DEF"/>
<stop offset="1" stop-color="#2B6DEF" stop-opacity="0"/>
</linearGradient>
<linearGradient id="paint3_linear" x1="600.069" y1="512" x2="214.753" y2="153.661" gradientUnits="userSpaceOnUse">
<stop stop-color="#2B6DEF"/>
<stop offset="1" stop-color="#2B6DEF" stop-opacity="0"/>
</linearGradient>
<linearGradient id="paint4_linear" x1="600.069" y1="512" x2="214.753" y2="153.661" gradientUnits="userSpaceOnUse">
<stop stop-color="#2B6DEF"/>
<stop offset="1" stop-color="#2B6DEF" stop-opacity="0"/>
</linearGradient>
<linearGradient id="paint5_linear" x1="600.069" y1="512" x2="214.753" y2="153.661" gradientUnits="userSpaceOnUse">
<stop stop-color="#2B6DEF"/>
<stop offset="1" stop-color="#2B6DEF" stop-opacity="0"/>
</linearGradient>
<linearGradient id="paint6_linear" x1="600.069" y1="512" x2="214.753" y2="153.661" gradientUnits="userSpaceOnUse">
<stop stop-color="#2B6DEF"/>
<stop offset="1" stop-color="#2B6DEF" stop-opacity="0"/>
</linearGradient>
<linearGradient id="paint7_linear" x1="600.069" y1="512" x2="214.753" y2="153.661" gradientUnits="userSpaceOnUse">
<stop stop-color="#2B6DEF"/>
<stop offset="1" stop-color="#2B6DEF" stop-opacity="0"/>
</linearGradient>
<linearGradient id="paint8_linear" x1="600.069" y1="512" x2="214.753" y2="153.661" gradientUnits="userSpaceOnUse">
<stop stop-color="#2B6DEF"/>
<stop offset="1" stop-color="#2B6DEF" stop-opacity="0"/>
</linearGradient>
<linearGradient id="paint9_linear" x1="600.069" y1="512" x2="214.753" y2="153.661" gradientUnits="userSpaceOnUse">
<stop stop-color="#2B6DEF"/>
<stop offset="1" stop-color="#2B6DEF" stop-opacity="0"/>
</linearGradient>
<linearGradient id="paint10_linear" x1="600.069" y1="512" x2="214.753" y2="153.661" gradientUnits="userSpaceOnUse">
<stop stop-color="#2B6DEF"/>
<stop offset="1" stop-color="#2B6DEF" stop-opacity="0"/>
</linearGradient>
<linearGradient id="paint11_linear" x1="600.069" y1="512" x2="214.753" y2="153.661" gradientUnits="userSpaceOnUse">
<stop stop-color="#2B6DEF"/>
<stop offset="1" stop-color="#2B6DEF" stop-opacity="0"/>
</linearGradient>
<linearGradient id="paint12_linear" x1="600.069" y1="512" x2="214.753" y2="153.661" gradientUnits="userSpaceOnUse">
<stop stop-color="#2B6DEF"/>
<stop offset="1" stop-color="#2B6DEF" stop-opacity="0"/>
</linearGradient>
<linearGradient id="paint13_linear" x1="600.069" y1="512" x2="214.753" y2="153.661" gradientUnits="userSpaceOnUse">
<stop stop-color="#2B6DEF"/>
<stop offset="1" stop-color="#2B6DEF" stop-opacity="0"/>
</linearGradient>
<linearGradient id="paint14_linear" x1="600.069" y1="512" x2="214.753" y2="153.661" gradientUnits="userSpaceOnUse">
<stop stop-color="#2B6DEF"/>
<stop offset="1" stop-color="#2B6DEF" stop-opacity="0"/>
</linearGradient>
<linearGradient id="paint15_linear" x1="600.069" y1="512" x2="214.753" y2="153.661" gradientUnits="userSpaceOnUse">
<stop stop-color="#2B6DEF"/>
<stop offset="1" stop-color="#2B6DEF" stop-opacity="0"/>
</linearGradient>
<linearGradient id="paint16_linear" x1="600.069" y1="512" x2="214.753" y2="153.661" gradientUnits="userSpaceOnUse">
<stop stop-color="#2B6DEF"/>
<stop offset="1" stop-color="#2B6DEF" stop-opacity="0"/>
</linearGradient>
<linearGradient id="paint17_linear" x1="600.069" y1="512" x2="214.753" y2="153.661" gradientUnits="userSpaceOnUse">
<stop stop-color="#2B6DEF"/>
<stop offset="1" stop-color="#2B6DEF" stop-opacity="0"/>
</linearGradient>
<linearGradient id="paint18_linear" x1="600.069" y1="512" x2="214.753" y2="153.661" gradientUnits="userSpaceOnUse">
<stop stop-color="#2B6DEF"/>
<stop offset="1" stop-color="#2B6DEF" stop-opacity="0"/>
</linearGradient>
<linearGradient id="paint19_linear" x1="600.069" y1="512" x2="214.753" y2="153.661" gradientUnits="userSpaceOnUse">
<stop stop-color="#2B6DEF"/>
<stop offset="1" stop-color="#2B6DEF" stop-opacity="0"/>
</linearGradient>
<linearGradient id="paint20_linear" x1="600.069" y1="512" x2="214.753" y2="153.661" gradientUnits="userSpaceOnUse">
<stop stop-color="#2B6DEF"/>
<stop offset="1" stop-color="#2B6DEF" stop-opacity="0"/>
</linearGradient>
<linearGradient id="paint21_linear" x1="600.069" y1="512" x2="214.753" y2="153.661" gradientUnits="userSpaceOnUse">
<stop stop-color="#2B6DEF"/>
<stop offset="1" stop-color="#2B6DEF" stop-opacity="0"/>
</linearGradient>
<linearGradient id="paint22_linear" x1="600.069" y1="512" x2="214.753" y2="153.661" gradientUnits="userSpaceOnUse">
<stop stop-color="#2B6DEF"/>
<stop offset="1" stop-color="#2B6DEF" stop-opacity="0"/>
</linearGradient>
<linearGradient id="paint23_linear" x1="600.069" y1="512" x2="214.753" y2="153.661" gradientUnits="userSpaceOnUse">
<stop stop-color="#2B6DEF"/>
<stop offset="1" stop-color="#2B6DEF" stop-opacity="0"/>
</linearGradient>
<linearGradient id="paint24_linear" x1="600.069" y1="512" x2="214.753" y2="153.661" gradientUnits="userSpaceOnUse">
<stop stop-color="#2B6DEF"/>
<stop offset="1" stop-color="#2B6DEF" stop-opacity="0"/>
</linearGradient>
<linearGradient id="paint25_linear" x1="600.069" y1="512" x2="214.753" y2="153.661" gradientUnits="userSpaceOnUse">
<stop stop-color="#2B6DEF"/>
<stop offset="1" stop-color="#2B6DEF" stop-opacity="0"/>
</linearGradient>
<linearGradient id="paint26_linear" x1="600.069" y1="512" x2="214.753" y2="153.661" gradientUnits="userSpaceOnUse">
<stop stop-color="#2B6DEF"/>
<stop offset="1" stop-color="#2B6DEF" stop-opacity="0"/>
</linearGradient>
<linearGradient id="paint27_linear" x1="600.069" y1="512" x2="214.753" y2="153.661" gradientUnits="userSpaceOnUse">
<stop stop-color="#2B6DEF"/>
<stop offset="1" stop-color="#2B6DEF" stop-opacity="0"/>
</linearGradient>
<linearGradient id="paint28_linear" x1="600.069" y1="512" x2="214.753" y2="153.661" gradientUnits="userSpaceOnUse">
<stop stop-color="#2B6DEF"/>
<stop offset="1" stop-color="#2B6DEF" stop-opacity="0"/>
</linearGradient>
<linearGradient id="paint29_linear" x1="600.069" y1="512" x2="214.753" y2="153.661" gradientUnits="userSpaceOnUse">
<stop stop-color="#2B6DEF"/>
<stop offset="1" stop-color="#2B6DEF" stop-opacity="0"/>
</linearGradient>
<linearGradient id="paint30_linear" x1="600.069" y1="512" x2="214.753" y2="153.661" gradientUnits="userSpaceOnUse">
<stop stop-color="#2B6DEF"/>
<stop offset="1" stop-color="#2B6DEF" stop-opacity="0"/>
</linearGradient>
<linearGradient id="paint31_linear" x1="600.069" y1="512" x2="214.753" y2="153.661" gradientUnits="userSpaceOnUse">
<stop stop-color="#2B6DEF"/>
<stop offset="1" stop-color="#2B6DEF" stop-opacity="0"/>
</linearGradient>
<linearGradient id="paint32_linear" x1="600.069" y1="512" x2="214.753" y2="153.661" gradientUnits="userSpaceOnUse">
<stop stop-color="#2B6DEF"/>
<stop offset="1" stop-color="#2B6DEF" stop-opacity="0"/>
</linearGradient>
<linearGradient id="paint33_linear" x1="600.069" y1="512" x2="214.753" y2="153.661" gradientUnits="userSpaceOnUse">
<stop stop-color="#2B6DEF"/>
<stop offset="1" stop-color="#2B6DEF" stop-opacity="0"/>
</linearGradient>
<linearGradient id="paint34_linear" x1="600.069" y1="512" x2="214.753" y2="153.661" gradientUnits="userSpaceOnUse">
<stop stop-color="#2B6DEF"/>
<stop offset="1" stop-color="#2B6DEF" stop-opacity="0"/>
</linearGradient>
<linearGradient id="paint35_linear" x1="600.069" y1="512" x2="214.753" y2="153.661" gradientUnits="userSpaceOnUse">
<stop stop-color="#2B6DEF"/>
<stop offset="1" stop-color="#2B6DEF" stop-opacity="0"/>
</linearGradient>
<linearGradient id="paint36_linear" x1="600.069" y1="512" x2="214.753" y2="153.661" gradientUnits="userSpaceOnUse">
<stop stop-color="#2B6DEF"/>
<stop offset="1" stop-color="#2B6DEF" stop-opacity="0"/>
</linearGradient>
<linearGradient id="paint37_linear" x1="600.069" y1="512" x2="214.753" y2="153.661" gradientUnits="userSpaceOnUse">
<stop stop-color="#2B6DEF"/>
<stop offset="1" stop-color="#2B6DEF" stop-opacity="0"/>
</linearGradient>
<linearGradient id="paint38_linear" x1="600.069" y1="512" x2="214.753" y2="153.661" gradientUnits="userSpaceOnUse">
<stop stop-color="#2B6DEF"/>
<stop offset="1" stop-color="#2B6DEF" stop-opacity="0"/>
</linearGradient>
<linearGradient id="paint39_linear" x1="600.069" y1="512" x2="214.753" y2="153.661" gradientUnits="userSpaceOnUse">
<stop stop-color="#2B6DEF"/>
<stop offset="1" stop-color="#2B6DEF" stop-opacity="0"/>
</linearGradient>
<linearGradient id="paint40_linear" x1="600.069" y1="512" x2="214.753" y2="153.661" gradientUnits="userSpaceOnUse">
<stop stop-color="#2B6DEF"/>
<stop offset="1" stop-color="#2B6DEF" stop-opacity="0"/>
</linearGradient>
<linearGradient id="paint41_linear" x1="600.069" y1="512" x2="214.753" y2="153.661" gradientUnits="userSpaceOnUse">
<stop stop-color="#2B6DEF"/>
<stop offset="1" stop-color="#2B6DEF" stop-opacity="0"/>
</linearGradient>
<linearGradient id="paint42_linear" x1="600.069" y1="512" x2="214.753" y2="153.661" gradientUnits="userSpaceOnUse">
<stop stop-color="#2B6DEF"/>
<stop offset="1" stop-color="#2B6DEF" stop-opacity="0"/>
</linearGradient>
<linearGradient id="paint43_linear" x1="600.069" y1="512" x2="214.753" y2="153.661" gradientUnits="userSpaceOnUse">
<stop stop-color="#2B6DEF"/>
<stop offset="1" stop-color="#2B6DEF" stop-opacity="0"/>
</linearGradient>
<linearGradient id="paint44_linear" x1="600.069" y1="512" x2="214.753" y2="153.661" gradientUnits="userSpaceOnUse">
<stop stop-color="#2B6DEF"/>
<stop offset="1" stop-color="#2B6DEF" stop-opacity="0"/>
</linearGradient>
<linearGradient id="paint45_linear" x1="600.069" y1="512" x2="214.753" y2="153.661" gradientUnits="userSpaceOnUse">
<stop stop-color="#2B6DEF"/>
<stop offset="1" stop-color="#2B6DEF" stop-opacity="0"/>
</linearGradient>
<linearGradient id="paint46_linear" x1="600.069" y1="512" x2="214.753" y2="153.661" gradientUnits="userSpaceOnUse">
<stop stop-color="#2B6DEF"/>
<stop offset="1" stop-color="#2B6DEF" stop-opacity="0"/>
</linearGradient>
<linearGradient id="paint47_linear" x1="600.069" y1="512" x2="214.753" y2="153.661" gradientUnits="userSpaceOnUse">
<stop stop-color="#2B6DEF"/>
<stop offset="1" stop-color="#2B6DEF" stop-opacity="0"/>
</linearGradient>
<linearGradient id="paint48_linear" x1="600.069" y1="512" x2="214.753" y2="153.661" gradientUnits="userSpaceOnUse">
<stop stop-color="#2B6DEF"/>
<stop offset="1" stop-color="#2B6DEF" stop-opacity="0"/>
</linearGradient>
<linearGradient id="paint49_linear" x1="600.069" y1="512" x2="214.753" y2="153.661" gradientUnits="userSpaceOnUse">
<stop stop-color="#2B6DEF"/>
<stop offset="1" stop-color="#2B6DEF" stop-opacity="0"/>
</linearGradient>
<linearGradient id="paint50_linear" x1="600.069" y1="512" x2="214.753" y2="153.661" gradientUnits="userSpaceOnUse">
<stop stop-color="#2B6DEF"/>
<stop offset="1" stop-color="#2B6DEF" stop-opacity="0"/>
</linearGradient>
<linearGradient id="paint51_linear" x1="600.069" y1="512" x2="214.753" y2="153.661" gradientUnits="userSpaceOnUse">
<stop stop-color="#2B6DEF"/>
<stop offset="1" stop-color="#2B6DEF" stop-opacity="0"/>
</linearGradient>
<linearGradient id="paint52_linear" x1="600.069" y1="512" x2="214.753" y2="153.661" gradientUnits="userSpaceOnUse">
<stop stop-color="#2B6DEF"/>
<stop offset="1" stop-color="#2B6DEF" stop-opacity="0"/>
</linearGradient>
<linearGradient id="paint53_linear" x1="600.069" y1="512" x2="214.753" y2="153.661" gradientUnits="userSpaceOnUse">
<stop stop-color="#2B6DEF"/>
<stop offset="1" stop-color="#2B6DEF" stop-opacity="0"/>
</linearGradient>
<linearGradient id="paint54_linear" x1="600.069" y1="512" x2="214.753" y2="153.661" gradientUnits="userSpaceOnUse">
<stop stop-color="#2B6DEF"/>
<stop offset="1" stop-color="#2B6DEF" stop-opacity="0"/>
</linearGradient>
<linearGradient id="paint55_linear" x1="600.069" y1="512" x2="214.753" y2="153.661" gradientUnits="userSpaceOnUse">
<stop stop-color="#2B6DEF"/>
<stop offset="1" stop-color="#2B6DEF" stop-opacity="0"/>
</linearGradient>
<linearGradient id="paint56_linear" x1="600.069" y1="512" x2="214.753" y2="153.661" gradientUnits="userSpaceOnUse">
<stop stop-color="#2B6DEF"/>
<stop offset="1" stop-color="#2B6DEF" stop-opacity="0"/>
</linearGradient>
<linearGradient id="paint57_linear" x1="600.069" y1="512" x2="214.753" y2="153.661" gradientUnits="userSpaceOnUse">
<stop stop-color="#2B6DEF"/>
<stop offset="1" stop-color="#2B6DEF" stop-opacity="0"/>
</linearGradient>
<linearGradient id="paint58_linear" x1="600.069" y1="512" x2="214.753" y2="153.661" gradientUnits="userSpaceOnUse">
<stop stop-color="#2B6DEF"/>
<stop offset="1" stop-color="#2B6DEF" stop-opacity="0"/>
</linearGradient>
<linearGradient id="paint59_linear" x1="600.069" y1="512" x2="214.753" y2="153.661" gradientUnits="userSpaceOnUse">
<stop stop-color="#2B6DEF"/>
<stop offset="1" stop-color="#2B6DEF" stop-opacity="0"/>
</linearGradient>
<linearGradient id="paint60_linear" x1="600.069" y1="512" x2="214.753" y2="153.661" gradientUnits="userSpaceOnUse">
<stop stop-color="#2B6DEF"/>
<stop offset="1" stop-color="#2B6DEF" stop-opacity="0"/>
</linearGradient>
<linearGradient id="paint61_linear" x1="600.069" y1="512" x2="214.753" y2="153.661" gradientUnits="userSpaceOnUse">
<stop stop-color="#2B6DEF"/>
<stop offset="1" stop-color="#2B6DEF" stop-opacity="0"/>
</linearGradient>
<linearGradient id="paint62_linear" x1="600.069" y1="512" x2="214.753" y2="153.661" gradientUnits="userSpaceOnUse">
<stop stop-color="#2B6DEF"/>
<stop offset="1" stop-color="#2B6DEF" stop-opacity="0"/>
</linearGradient>
<linearGradient id="paint63_linear" x1="600.069" y1="512" x2="214.753" y2="153.661" gradientUnits="userSpaceOnUse">
<stop stop-color="#2B6DEF"/>
<stop offset="1" stop-color="#2B6DEF" stop-opacity="0"/>
</linearGradient>
<linearGradient id="paint64_linear" x1="600.069" y1="512" x2="214.753" y2="153.661" gradientUnits="userSpaceOnUse">
<stop stop-color="#2B6DEF"/>
<stop offset="1" stop-color="#2B6DEF" stop-opacity="0"/>
</linearGradient>
<linearGradient id="paint65_linear" x1="600.069" y1="512" x2="214.753" y2="153.661" gradientUnits="userSpaceOnUse">
<stop stop-color="#2B6DEF"/>
<stop offset="1" stop-color="#2B6DEF" stop-opacity="0"/>
</linearGradient>
<linearGradient id="paint66_linear" x1="600.069" y1="512" x2="214.753" y2="153.661" gradientUnits="userSpaceOnUse">
<stop stop-color="#2B6DEF"/>
<stop offset="1" stop-color="#2B6DEF" stop-opacity="0"/>
</linearGradient>
<linearGradient id="paint67_linear" x1="600.069" y1="512" x2="214.753" y2="153.661" gradientUnits="userSpaceOnUse">
<stop stop-color="#2B6DEF"/>
<stop offset="1" stop-color="#2B6DEF" stop-opacity="0"/>
</linearGradient>
<linearGradient id="paint68_linear" x1="600.069" y1="512" x2="214.753" y2="153.661" gradientUnits="userSpaceOnUse">
<stop stop-color="#2B6DEF"/>
<stop offset="1" stop-color="#2B6DEF" stop-opacity="0"/>
</linearGradient>
<linearGradient id="paint69_linear" x1="600.069" y1="512" x2="214.753" y2="153.661" gradientUnits="userSpaceOnUse">
<stop stop-color="#2B6DEF"/>
<stop offset="1" stop-color="#2B6DEF" stop-opacity="0"/>
</linearGradient>
<linearGradient id="paint70_linear" x1="600.069" y1="512" x2="214.753" y2="153.661" gradientUnits="userSpaceOnUse">
<stop stop-color="#2B6DEF"/>
<stop offset="1" stop-color="#2B6DEF" stop-opacity="0"/>
</linearGradient>
<linearGradient id="paint71_linear" x1="600.069" y1="512" x2="214.753" y2="153.661" gradientUnits="userSpaceOnUse">
<stop stop-color="#2B6DEF"/>
<stop offset="1" stop-color="#2B6DEF" stop-opacity="0"/>
</linearGradient>
<linearGradient id="paint72_linear" x1="600.069" y1="512" x2="214.753" y2="153.661" gradientUnits="userSpaceOnUse">
<stop stop-color="#2B6DEF"/>
<stop offset="1" stop-color="#2B6DEF" stop-opacity="0"/>
</linearGradient>
<linearGradient id="paint73_linear" x1="600.069" y1="512" x2="214.753" y2="153.661" gradientUnits="userSpaceOnUse">
<stop stop-color="#2B6DEF"/>
<stop offset="1" stop-color="#2B6DEF" stop-opacity="0"/>
</linearGradient>
<linearGradient id="paint74_linear" x1="600.069" y1="512" x2="214.753" y2="153.661" gradientUnits="userSpaceOnUse">
<stop stop-color="#2B6DEF"/>
<stop offset="1" stop-color="#2B6DEF" stop-opacity="0"/>
</linearGradient>
<linearGradient id="paint75_linear" x1="600.069" y1="512" x2="214.753" y2="153.661" gradientUnits="userSpaceOnUse">
<stop stop-color="#2B6DEF"/>
<stop offset="1" stop-color="#2B6DEF" stop-opacity="0"/>
</linearGradient>
<linearGradient id="paint76_linear" x1="600.069" y1="512" x2="214.753" y2="153.661" gradientUnits="userSpaceOnUse">
<stop stop-color="#2B6DEF"/>
<stop offset="1" stop-color="#2B6DEF" stop-opacity="0"/>
</linearGradient>
<linearGradient id="paint77_linear" x1="600.069" y1="512" x2="214.753" y2="153.661" gradientUnits="userSpaceOnUse">
<stop stop-color="#2B6DEF"/>
<stop offset="1" stop-color="#2B6DEF" stop-opacity="0"/>
</linearGradient>
<linearGradient id="paint78_linear" x1="600.069" y1="512" x2="214.753" y2="153.661" gradientUnits="userSpaceOnUse">
<stop stop-color="#2B6DEF"/>
<stop offset="1" stop-color="#2B6DEF" stop-opacity="0"/>
</linearGradient>
<linearGradient id="paint79_linear" x1="600.069" y1="512" x2="214.753" y2="153.661" gradientUnits="userSpaceOnUse">
<stop stop-color="#2B6DEF"/>
<stop offset="1" stop-color="#2B6DEF" stop-opacity="0"/>
</linearGradient>
<linearGradient id="paint80_linear" x1="600.069" y1="512" x2="214.753" y2="153.661" gradientUnits="userSpaceOnUse">
<stop stop-color="#2B6DEF"/>
<stop offset="1" stop-color="#2B6DEF" stop-opacity="0"/>
</linearGradient>
<linearGradient id="paint81_linear" x1="600.069" y1="512" x2="214.753" y2="153.661" gradientUnits="userSpaceOnUse">
<stop stop-color="#2B6DEF"/>
<stop offset="1" stop-color="#2B6DEF" stop-opacity="0"/>
</linearGradient>
<linearGradient id="paint82_linear" x1="600.069" y1="512" x2="214.753" y2="153.661" gradientUnits="userSpaceOnUse">
<stop stop-color="#2B6DEF"/>
<stop offset="1" stop-color="#2B6DEF" stop-opacity="0"/>
</linearGradient>
<linearGradient id="paint83_linear" x1="600.069" y1="512" x2="214.753" y2="153.661" gradientUnits="userSpaceOnUse">
<stop stop-color="#2B6DEF"/>
<stop offset="1" stop-color="#2B6DEF" stop-opacity="0"/>
</linearGradient>
<linearGradient id="paint84_linear" x1="600.069" y1="512" x2="214.753" y2="153.661" gradientUnits="userSpaceOnUse">
<stop stop-color="#2B6DEF"/>
<stop offset="1" stop-color="#2B6DEF" stop-opacity="0"/>
</linearGradient>
<linearGradient id="paint85_linear" x1="600.069" y1="512" x2="214.753" y2="153.661" gradientUnits="userSpaceOnUse">
<stop stop-color="#2B6DEF"/>
<stop offset="1" stop-color="#2B6DEF" stop-opacity="0"/>
</linearGradient>
<linearGradient id="paint86_linear" x1="600.069" y1="512" x2="214.753" y2="153.661" gradientUnits="userSpaceOnUse">
<stop stop-color="#2B6DEF"/>
<stop offset="1" stop-color="#2B6DEF" stop-opacity="0"/>
</linearGradient>
<linearGradient id="paint87_linear" x1="600.069" y1="512" x2="214.753" y2="153.661" gradientUnits="userSpaceOnUse">
<stop stop-color="#2B6DEF"/>
<stop offset="1" stop-color="#2B6DEF" stop-opacity="0"/>
</linearGradient>
<linearGradient id="paint88_linear" x1="600.069" y1="512" x2="214.753" y2="153.661" gradientUnits="userSpaceOnUse">
<stop stop-color="#2B6DEF"/>
<stop offset="1" stop-color="#2B6DEF" stop-opacity="0"/>
</linearGradient>
<linearGradient id="paint89_linear" x1="600.069" y1="512" x2="214.753" y2="153.661" gradientUnits="userSpaceOnUse">
<stop stop-color="#2B6DEF"/>
<stop offset="1" stop-color="#2B6DEF" stop-opacity="0"/>
</linearGradient>
<linearGradient id="paint90_linear" x1="600.069" y1="512" x2="214.753" y2="153.661" gradientUnits="userSpaceOnUse">
<stop stop-color="#2B6DEF"/>
<stop offset="1" stop-color="#2B6DEF" stop-opacity="0"/>
</linearGradient>
<linearGradient id="paint91_linear" x1="600.069" y1="512" x2="214.753" y2="153.661" gradientUnits="userSpaceOnUse">
<stop stop-color="#2B6DEF"/>
<stop offset="1" stop-color="#2B6DEF" stop-opacity="0"/>
</linearGradient>
<linearGradient id="paint92_linear" x1="600.069" y1="512" x2="214.753" y2="153.661" gradientUnits="userSpaceOnUse">
<stop stop-color="#2B6DEF"/>
<stop offset="1" stop-color="#2B6DEF" stop-opacity="0"/>
</linearGradient>
<linearGradient id="paint93_linear" x1="600.069" y1="512" x2="214.753" y2="153.661" gradientUnits="userSpaceOnUse">
<stop stop-color="#2B6DEF"/>
<stop offset="1" stop-color="#2B6DEF" stop-opacity="0"/>
</linearGradient>
<linearGradient id="paint94_linear" x1="600.069" y1="512" x2="214.753" y2="153.661" gradientUnits="userSpaceOnUse">
<stop stop-color="#2B6DEF"/>
<stop offset="1" stop-color="#2B6DEF" stop-opacity="0"/>
</linearGradient>
<linearGradient id="paint95_linear" x1="600.069" y1="512" x2="214.753" y2="153.661" gradientUnits="userSpaceOnUse">
<stop stop-color="#2B6DEF"/>
<stop offset="1" stop-color="#2B6DEF" stop-opacity="0"/>
</linearGradient>
<linearGradient id="paint96_linear" x1="600.069" y1="512" x2="214.753" y2="153.661" gradientUnits="userSpaceOnUse">
<stop stop-color="#2B6DEF"/>
<stop offset="1" stop-color="#2B6DEF" stop-opacity="0"/>
</linearGradient>
<linearGradient id="paint97_linear" x1="600.069" y1="512" x2="214.753" y2="153.661" gradientUnits="userSpaceOnUse">
<stop stop-color="#2B6DEF"/>
<stop offset="1" stop-color="#2B6DEF" stop-opacity="0"/>
</linearGradient>
<linearGradient id="paint98_linear" x1="600.069" y1="512" x2="214.753" y2="153.661" gradientUnits="userSpaceOnUse">
<stop stop-color="#2B6DEF"/>
<stop offset="1" stop-color="#2B6DEF" stop-opacity="0"/>
</linearGradient>
<linearGradient id="paint99_linear" x1="600.069" y1="512" x2="214.753" y2="153.661" gradientUnits="userSpaceOnUse">
<stop stop-color="#2B6DEF"/>
<stop offset="1" stop-color="#2B6DEF" stop-opacity="0"/>
</linearGradient>
<linearGradient id="paint100_linear" x1="600.069" y1="512" x2="214.753" y2="153.661" gradientUnits="userSpaceOnUse">
<stop stop-color="#2B6DEF"/>
<stop offset="1" stop-color="#2B6DEF" stop-opacity="0"/>
</linearGradient>
<linearGradient id="paint101_linear" x1="600.069" y1="512" x2="214.753" y2="153.661" gradientUnits="userSpaceOnUse">
<stop stop-color="#2B6DEF"/>
<stop offset="1" stop-color="#2B6DEF" stop-opacity="0"/>
</linearGradient>
<linearGradient id="paint102_linear" x1="600.069" y1="512" x2="214.753" y2="153.661" gradientUnits="userSpaceOnUse">
<stop stop-color="#2B6DEF"/>
<stop offset="1" stop-color="#2B6DEF" stop-opacity="0"/>
</linearGradient>
<linearGradient id="paint103_linear" x1="600.069" y1="512" x2="214.753" y2="153.661" gradientUnits="userSpaceOnUse">
<stop stop-color="#2B6DEF"/>
<stop offset="1" stop-color="#2B6DEF" stop-opacity="0"/>
</linearGradient>
<linearGradient id="paint104_linear" x1="600.069" y1="512" x2="214.753" y2="153.661" gradientUnits="userSpaceOnUse">
<stop stop-color="#2B6DEF"/>
<stop offset="1" stop-color="#2B6DEF" stop-opacity="0"/>
</linearGradient>
<linearGradient id="paint105_linear" x1="600.069" y1="512" x2="214.753" y2="153.661" gradientUnits="userSpaceOnUse">
<stop stop-color="#2B6DEF"/>
<stop offset="1" stop-color="#2B6DEF" stop-opacity="0"/>
</linearGradient>
<linearGradient id="paint106_linear" x1="600.069" y1="512" x2="214.753" y2="153.661" gradientUnits="userSpaceOnUse">
<stop stop-color="#2B6DEF"/>
<stop offset="1" stop-color="#2B6DEF" stop-opacity="0"/>
</linearGradient>
<linearGradient id="paint107_linear" x1="600.069" y1="512" x2="214.753" y2="153.661" gradientUnits="userSpaceOnUse">
<stop stop-color="#2B6DEF"/>
<stop offset="1" stop-color="#2B6DEF" stop-opacity="0"/>
</linearGradient>
<linearGradient id="paint108_linear" x1="600.069" y1="512" x2="214.753" y2="153.661" gradientUnits="userSpaceOnUse">
<stop stop-color="#2B6DEF"/>
<stop offset="1" stop-color="#2B6DEF" stop-opacity="0"/>
</linearGradient>
<linearGradient id="paint109_linear" x1="600.069" y1="512" x2="214.753" y2="153.661" gradientUnits="userSpaceOnUse">
<stop stop-color="#2B6DEF"/>
<stop offset="1" stop-color="#2B6DEF" stop-opacity="0"/>
</linearGradient>
<linearGradient id="paint110_linear" x1="600.069" y1="512" x2="214.753" y2="153.661" gradientUnits="userSpaceOnUse">
<stop stop-color="#2B6DEF"/>
<stop offset="1" stop-color="#2B6DEF" stop-opacity="0"/>
</linearGradient>
<linearGradient id="paint111_linear" x1="600.069" y1="512" x2="214.753" y2="153.661" gradientUnits="userSpaceOnUse">
<stop stop-color="#2B6DEF"/>
<stop offset="1" stop-color="#2B6DEF" stop-opacity="0"/>
</linearGradient>
<linearGradient id="paint112_linear" x1="600.069" y1="512" x2="214.753" y2="153.661" gradientUnits="userSpaceOnUse">
<stop stop-color="#2B6DEF"/>
<stop offset="1" stop-color="#2B6DEF" stop-opacity="0"/>
</linearGradient>
<linearGradient id="paint113_linear" x1="600.069" y1="512" x2="214.753" y2="153.661" gradientUnits="userSpaceOnUse">
<stop stop-color="#2B6DEF"/>
<stop offset="1" stop-color="#2B6DEF" stop-opacity="0"/>
</linearGradient>
<linearGradient id="paint114_linear" x1="600.069" y1="512" x2="214.753" y2="153.661" gradientUnits="userSpaceOnUse">
<stop stop-color="#2B6DEF"/>
<stop offset="1" stop-color="#2B6DEF" stop-opacity="0"/>
</linearGradient>
<linearGradient id="paint115_linear" x1="600.069" y1="512" x2="214.753" y2="153.661" gradientUnits="userSpaceOnUse">
<stop stop-color="#2B6DEF"/>
<stop offset="1" stop-color="#2B6DEF" stop-opacity="0"/>
</linearGradient>
<linearGradient id="paint116_linear" x1="600.069" y1="512" x2="214.753" y2="153.661" gradientUnits="userSpaceOnUse">
<stop stop-color="#2B6DEF"/>
<stop offset="1" stop-color="#2B6DEF" stop-opacity="0"/>
</linearGradient>
<linearGradient id="paint117_linear" x1="600.069" y1="512" x2="214.753" y2="153.661" gradientUnits="userSpaceOnUse">
<stop stop-color="#2B6DEF"/>
<stop offset="1" stop-color="#2B6DEF" stop-opacity="0"/>
</linearGradient>
<linearGradient id="paint118_linear" x1="600.069" y1="512" x2="214.753" y2="153.661" gradientUnits="userSpaceOnUse">
<stop stop-color="#2B6DEF"/>
<stop offset="1" stop-color="#2B6DEF" stop-opacity="0"/>
</linearGradient>
<linearGradient id="paint119_linear" x1="600.069" y1="512" x2="214.753" y2="153.661" gradientUnits="userSpaceOnUse">
<stop stop-color="#2B6DEF"/>
<stop offset="1" stop-color="#2B6DEF" stop-opacity="0"/>
</linearGradient>
<linearGradient id="paint120_linear" x1="600.069" y1="512" x2="214.753" y2="153.661" gradientUnits="userSpaceOnUse">
<stop stop-color="#2B6DEF"/>
<stop offset="1" stop-color="#2B6DEF" stop-opacity="0"/>
</linearGradient>
<linearGradient id="paint121_linear" x1="600.069" y1="512" x2="214.753" y2="153.661" gradientUnits="userSpaceOnUse">
<stop stop-color="#2B6DEF"/>
<stop offset="1" stop-color="#2B6DEF" stop-opacity="0"/>
</linearGradient>
<linearGradient id="paint122_linear" x1="600.069" y1="512" x2="214.753" y2="153.661" gradientUnits="userSpaceOnUse">
<stop stop-color="#2B6DEF"/>
<stop offset="1" stop-color="#2B6DEF" stop-opacity="0"/>
</linearGradient>
<linearGradient id="paint123_linear" x1="600.069" y1="512" x2="214.753" y2="153.661" gradientUnits="userSpaceOnUse">
<stop stop-color="#2B6DEF"/>
<stop offset="1" stop-color="#2B6DEF" stop-opacity="0"/>
</linearGradient>
<linearGradient id="paint124_linear" x1="600.069" y1="512" x2="214.753" y2="153.661" gradientUnits="userSpaceOnUse">
<stop stop-color="#2B6DEF"/>
<stop offset="1" stop-color="#2B6DEF" stop-opacity="0"/>
</linearGradient>
<linearGradient id="paint125_linear" x1="600.069" y1="512" x2="214.753" y2="153.661" gradientUnits="userSpaceOnUse">
<stop stop-color="#2B6DEF"/>
<stop offset="1" stop-color="#2B6DEF" stop-opacity="0"/>
</linearGradient>
<linearGradient id="paint126_linear" x1="600.069" y1="512" x2="214.753" y2="153.661" gradientUnits="userSpaceOnUse">
<stop stop-color="#2B6DEF"/>
<stop offset="1" stop-color="#2B6DEF" stop-opacity="0"/>
</linearGradient>
<linearGradient id="paint127_linear" x1="600.069" y1="512" x2="214.753" y2="153.661" gradientUnits="userSpaceOnUse">
<stop stop-color="#2B6DEF"/>
<stop offset="1" stop-color="#2B6DEF" stop-opacity="0"/>
</linearGradient>
<linearGradient id="paint128_linear" x1="600.069" y1="512" x2="214.753" y2="153.661" gradientUnits="userSpaceOnUse">
<stop stop-color="#2B6DEF"/>
<stop offset="1" stop-color="#2B6DEF" stop-opacity="0"/>
</linearGradient>
<linearGradient id="paint129_linear" x1="600.069" y1="512" x2="214.753" y2="153.661" gradientUnits="userSpaceOnUse">
<stop stop-color="#2B6DEF"/>
<stop offset="1" stop-color="#2B6DEF" stop-opacity="0"/>
</linearGradient>
<linearGradient id="paint130_linear" x1="600.069" y1="512" x2="214.753" y2="153.661" gradientUnits="userSpaceOnUse">
<stop stop-color="#2B6DEF"/>
<stop offset="1" stop-color="#2B6DEF" stop-opacity="0"/>
</linearGradient>
<linearGradient id="paint131_linear" x1="600.069" y1="512" x2="214.753" y2="153.661" gradientUnits="userSpaceOnUse">
<stop stop-color="#2B6DEF"/>
<stop offset="1" stop-color="#2B6DEF" stop-opacity="0"/>
</linearGradient>
</defs>
</svg>
