<svg width="237" height="210" viewBox="0 0 237 210" fill="none" xmlns="http://www.w3.org/2000/svg">
<path d="M175.231 147.707L231.213 115.381C234.181 113.664 236.014 110.48 236.014 107.062V42.4114C236.014 38.9938 234.181 35.8096 231.213 34.0925L175.231 1.76701C172.264 0.049877 168.579 0.0665482 165.629 1.76701L109.647 34.0925C106.679 35.8096 104.845 38.9938 104.845 42.4114V157.943L65.5846 180.599L26.3239 157.943V112.614L65.5846 89.9578L91.475 104.912V74.5035L70.3859 62.3169C68.9355 61.4833 67.2684 61.0332 65.5846 61.0332C63.9008 61.0332 62.2337 61.4833 60.7833 62.3169L4.80131 94.6424C1.83383 96.3595 0 99.5437 0 102.961V167.612C0 171.03 1.83383 174.214 4.80131 175.931L60.7833 208.257C63.7507 209.957 67.4184 209.957 70.3859 208.257L126.368 175.931C129.335 174.214 131.169 171.03 131.169 167.612V52.0807L131.869 51.6806L170.413 29.4246L209.674 52.0807V97.4098L170.413 120.066L144.556 105.145V135.554L165.612 147.707C168.579 149.407 172.264 149.407 175.214 147.707H175.231Z" fill="url(#paint0_linear_1_30)"/>
<defs>
<linearGradient id="paint0_linear_1_30" x1="-0.766881" y1="173.947" x2="225.878" y2="42.3948" gradientUnits="userSpaceOnUse">
<stop stop-color="#A726C1"/>
<stop offset="0.88" stop-color="#803BDF"/>
<stop offset="1" stop-color="#7B3FE4"/>
</linearGradient>
</defs>
</svg>
