<?xml version="1.0" encoding="UTF-8"?><svg id="Layer_1" xmlns="http://www.w3.org/2000/svg" xmlns:xlink="http://www.w3.org/1999/xlink" viewBox="0 0 807.28 148.28"><defs><style>.cls-1{fill:#22143d;}.cls-2{fill:url(#linear-gradient);}</style><linearGradient id="linear-gradient" x1="14.96" y1="115.49" x2="150.91" y2="36.58" gradientUnits="userSpaceOnUse"><stop offset="0" stop-color="#a726c1"/><stop offset=".88" stop-color="#803bdf"/><stop offset="1" stop-color="#7b3fe4"/></linearGradient></defs><g><path class="cls-1" d="m194.03,128.76V49.72h11.76l1.12,6.38h.56c3.36-4.37,9.07-7.5,17.02-7.5,14.55,0,26.2,11.87,26.2,29.44s-11.64,29.44-26.2,29.44c-7.84,0-13.32-3.25-16.23-6.94h-.56v28.21h-13.66Zm42.99-50.71c0-10.3-6.61-16.79-14.67-16.79s-14.67,6.49-14.67,16.79,6.61,16.79,14.67,16.79,14.67-6.49,14.67-16.79Z"/><path class="cls-1" d="m257.62,78.04c0-17.13,12.31-29.44,28.77-29.44s28.77,12.31,28.77,29.44-12.31,29.44-28.77,29.44-28.77-12.43-28.77-29.44Zm43.77,0c0-10.08-6.72-16.79-15-16.79s-15.11,6.72-15.11,16.79,6.83,16.68,15.11,16.68,15-6.6,15-16.68Z"/><path class="cls-1" d="m325.06,106.37V28h13.66v78.37h-13.66Z"/><path class="cls-1" d="m389.43,49.72h14.55l-24.63,68.85c-2.46,6.83-5.82,10.19-14.67,10.19h-13.21v-12.65h11.2c2.02,0,3.13-1.01,3.81-2.69l1.34-3.69-23.06-60.01h14.55l14.67,39.3h2.24l13.21-39.3Z"/><path class="cls-1" d="m406.59,109.17h13.88c.56,3.69,4.25,8.73,12.99,8.73,8.17,0,13.55-5.15,13.55-12.99v-7.95h-.56c-3.02,3.25-8.62,6.16-15.79,6.16-14.55,0-25.75-11.2-25.75-27.32s11.2-27.2,25.75-27.2c7.5,0,12.99,3.02,16.46,7.28h.56l1.12-6.16h11.87v55.19c0,15-10.08,24.97-27.21,24.97-19.14,0-26.53-12.54-26.87-20.71Zm40.42-33.36c0-8.84-6.27-15-14.22-15s-14.11,6.16-14.11,15,6.27,15.11,14.11,15.11,14.22-6.16,14.22-15.11Z"/><path class="cls-1" d="m470.16,78.04c0-17.13,12.31-29.44,28.77-29.44s28.77,12.31,28.77,29.44-12.31,29.44-28.77,29.44-28.77-12.43-28.77-29.44Zm43.77,0c0-10.08-6.72-16.79-15-16.79s-15.11,6.72-15.11,16.79,6.83,16.68,15.11,16.68,15-6.6,15-16.68Z"/><path class="cls-1" d="m537.21,106.37v-56.65h11.75l1.12,5.37h.56c2.24-2.57,7.84-6.49,16.34-6.49,12.99,0,22.39,9.4,22.39,23.73v34.03h-13.66v-32.24c0-7.28-5.15-12.54-12.2-12.54s-12.65,5.49-12.65,12.54v32.24h-13.66Z"/><path class="cls-1" d="m614.98,106.37V28h6.27v78.37h-6.27Z"/><path class="cls-1" d="m632.92,90.47c0-10.41,6.94-17.35,21.61-17.35h16.46v-2.8c0-9.52-5.6-15.11-14.78-15.11s-14.67,5.26-15.23,11.42h-6.38c.56-9.18,8.06-17.35,21.61-17.35s21.16,7.61,21.16,21.05v36.05h-5.49l-.9-8.62h-.56c-2.91,5.49-9.74,9.74-18.7,9.74-11.2,0-18.81-6.94-18.81-17.02Zm38.06-8.73v-2.58h-16.46c-10.41,0-15.23,4.59-15.23,11.31s4.59,11.08,12.43,11.08c12.54,0,19.26-8.4,19.26-19.82Z"/><path class="cls-1" d="m698.23,96.63h-.56l-.9,9.74h-5.37V28h6.27v32.13h.56c4.48-6.61,10.52-10.86,19.03-10.86,14.22,0,25.19,11.53,25.19,29.11s-10.97,29.11-25.19,29.11c-8.51,0-14.55-4.25-19.03-10.86Zm37.95-18.25c0-14.22-8.96-23.17-19.26-23.17s-19.26,8.96-19.26,23.17,9.18,23.17,19.26,23.17,19.26-8.96,19.26-23.17Z"/><path class="cls-1" d="m749.11,90.13h6.38c0,5.93,5.6,11.42,15.23,11.42s14.78-4.48,14.78-9.96c0-5.15-3.36-8.4-10.41-9.63l-9.74-1.68c-9.85-1.68-15.11-6.49-15.11-15.11s6.72-15.9,19.93-15.9,21.16,8.17,21.16,17.35h-6.38c0-6.16-5.6-11.42-14.78-11.42s-13.55,4.48-13.55,9.96c0,4.59,2.58,7.84,9.85,9.07l9.74,1.68c10.75,1.9,15.67,7.17,15.67,15.67s-7.17,15.9-21.16,15.9-21.61-8.17-21.61-17.35Z"/></g><path class="cls-2" d="m120.53,99.75l33.58-19.39c1.78-1.03,2.88-2.94,2.88-4.99v-38.78c0-2.05-1.1-3.96-2.88-4.99l-33.58-19.39c-1.78-1.03-3.99-1.02-5.76,0l-33.58,19.39c-1.78,1.03-2.88,2.94-2.88,4.99v69.3l-23.55,13.59-23.55-13.59v-27.19l23.55-13.59,15.53,8.97v-18.24l-12.65-7.31c-.87-.5-1.87-.77-2.88-.77s-2.01.27-2.88.77l-33.58,19.39c-1.78,1.03-2.88,2.94-2.88,4.99v38.78c0,2.05,1.1,3.96,2.88,4.99l33.58,19.39c1.78,1.02,3.98,1.02,5.76,0l33.58-19.39c1.78-1.03,2.88-2.94,2.88-4.99V42.39l.42-.24,23.12-13.35,23.55,13.59v27.19l-23.55,13.59-15.51-8.95v18.24l12.63,7.29c1.78,1.02,3.99,1.02,5.76,0Z"/></svg>